<?xml version="1.0" encoding="UTF-8" standalone="no"?>
<!-- Created with Inkscape (http://www.inkscape.org/) -->

<svg
   xmlns:dc="http://purl.org/dc/elements/1.1/"
   xmlns:cc="http://creativecommons.org/ns#"
   xmlns:rdf="http://www.w3.org/1999/02/22-rdf-syntax-ns#"
   xmlns:svg="http://www.w3.org/2000/svg"
   xmlns="http://www.w3.org/2000/svg"
   xmlns:sodipodi="http://sodipodi.sourceforge.net/DTD/sodipodi-0.dtd"
   xmlns:inkscape="http://www.inkscape.org/namespaces/inkscape"
   width="1000"
   height="614.41016"
   id="svg3647"
   version="1.1"
   inkscape:version="0.48.5 r10040"
   sodipodi:docname="A.svg">
  <defs
     id="defs3649">
    <clipPath
       clipPathUnits="userSpaceOnUse"
       id="clipPath3121">
      <path
         inkscape:connector-curvature="0"
         d="m 412.56,35.844 163.685,0 0,33.996 -163.685,0 0,-33.996 z"
         id="path3123" />
    </clipPath>
  </defs>
  <sodipodi:namedview
     id="base"
     pagecolor="#ffffff"
     bordercolor="#666666"
     borderopacity="1.0"
     inkscape:pageopacity="0.0"
     inkscape:pageshadow="2"
     inkscape:zoom="0.56601563"
     inkscape:cx="636.20496"
     inkscape:cy="105.57452"
     inkscape:document-units="px"
     inkscape:current-layer="layer1"
     showgrid="false"
     fit-margin-left="0.5"
     fit-margin-bottom="0.5"
     fit-margin-top="0.5"
     fit-margin-right="0.5"
     inkscape:window-width="1024"
     inkscape:window-height="1025"
     inkscape:window-x="890"
     inkscape:window-y="-7"
     inkscape:window-maximized="0" />
  <metadata
     id="metadata3652">
    <rdf:RDF>
      <cc:Work
         rdf:about="">
        <dc:format>image/svg+xml</dc:format>
        <dc:type
           rdf:resource="http://purl.org/dc/dcmitype/StillImage" />
        <dc:title></dc:title>
      </cc:Work>
    </rdf:RDF>
  </metadata>
  <g
     inkscape:label="Layer 1"
     inkscape:groupmode="layer"
     id="layer1"
     transform="translate(-272.61722,402.34637)">
    <g
       id="g20980"
       transform="matrix(6.123477,0,0,-6.123477,756.69927,114.45093)">
      <path
         d="M 0,0 C 0,-0.412 0.083,-0.681 0.25,-0.81 0.422,-0.944 0.708,-0.996 1.097,-0.992 1.412,-0.99 1.821,-0.971 2.344,-0.969 5.891,-0.95 6.57,-0.963 6.525,0.653 6.246,10.687 6.382,16.608 6.433,27.74 6.437,28.493 6.411,29.065 6.358,29.46 6.306,29.857 6.21,30.134 6.059,30.272 5.905,30.412 5.684,30.473 5.386,30.47 3.921,30.453 2.42,30.359 0.965,30.197 -0.24,30.063 -0.071,29.436 -0.033,27.815 0.182,18.554 0,9.263 0,0 m -51.457,11.2 c 0.498,1.299 0.997,2.598 1.488,3.912 0.482,1.309 0.956,2.574 1.404,3.805 0.449,1.231 0.864,2.382 1.247,3.45 0.2,-0.554 0.491,-1.333 0.865,-2.308 0.374,-0.984 0.839,-2.208 1.396,-3.673 0.557,-1.456 1.197,-3.191 1.929,-5.186 l -8.329,0 z m 9.674,-4.466 c 0.783,-2.08 1.54,-3.825 2.322,-5.915 0.516,-1.379 0.849,-1.653 1.924,-1.653 l 3.841,0 c 1.302,0 1.778,0.312 1.325,1.362 -0.138,0.318 -0.286,0.654 -0.434,1.003 -0.405,0.96 -0.872,2.084 -1.388,3.376 -0.523,1.291 -1.122,2.794 -1.804,4.507 -0.357,0.869 -0.773,1.912 -1.263,3.134 -0.49,1.224 -1.014,2.54 -1.588,3.97 -0.565,1.423 -1.147,2.871 -1.737,4.343 -0.59,1.471 -1.155,2.887 -1.713,4.252 -0.556,1.365 -1.275,3.354 -1.741,4.463 -0.299,0.596 -0.698,0.894 -1.197,0.894 -1.252,0 -2.093,0.032 -2.912,-0.006 -1.583,-0.07 -2.35,-3.451 -3.051,-5.129 -0.484,-1.155 -1.031,-2.472 -1.655,-3.962 -0.631,-1.479 -1.289,-3.059 -1.995,-4.722 -0.706,-1.662 -1.414,-3.349 -2.128,-5.045 -0.714,-1.695 -1.413,-3.333 -2.078,-4.906 -0.665,-1.579 -1.28,-3.017 -1.828,-4.324 -0.198,-0.464 -0.404,-0.925 -0.602,-1.386 -0.715,-1.663 0.01,-1.77 0.99,-1.824 l 2.399,0 c 1.649,0 2.059,-0.214 2.762,1.433 0.862,2.015 1.58,4.094 2.38,6.135 l 11.171,0 z m 17.986,2.919 c 1.606,-4.17 5.502,-6.403 10.032,-6.389 2.167,0.006 4.218,0.219 6.085,1.171 0.587,0.301 1.194,0.125 1.678,-0.121 0.488,-0.249 0.868,-0.635 1.148,-1.181 1.448,-2.818 -2.575,-3.468 -4.572,-3.89 -1.279,-0.271 -2.694,-0.416 -4.239,-0.423 -1.995,-0.008 -3.883,0.246 -5.661,0.724 -1.786,0.48 -3.414,1.184 -4.895,2.109 -1.477,0.92 -2.759,2.042 -3.841,3.368 -1.08,1.328 -1.92,2.835 -2.509,4.536 -1.192,3.425 -1.172,7.174 0,10.599 0.589,1.726 1.429,3.259 2.509,4.607 1.082,1.348 2.364,2.488 3.841,3.423 1.481,0.941 3.109,1.655 4.895,2.142 1.778,0.488 3.666,0.747 5.661,0.737 1.545,-0.007 2.96,-0.155 4.239,-0.429 1.997,-0.43 6.02,-1.089 4.572,-3.954 -0.28,-0.554 -0.66,-0.948 -1.148,-1.2 -0.484,-0.25 -1.091,-0.428 -1.678,-0.123 -1.867,0.966 -3.918,1.185 -6.085,1.191 -4.53,0.012 -8.426,-2.256 -10.032,-6.494 -1.215,-3.202 -1.23,-7.216 0,-10.403 m 55.002,-2.324 6.582,19.916 c 0.768,2.12 1.194,3.474 3.669,3.486 1.597,0.009 3.481,-0.499 3.812,-1.898 1.565,-9.301 2.775,-18.68 4.557,-27.94 0.249,-1.284 0.317,-1.534 -0.649,-1.694 -0.382,-0.064 -0.799,-0.108 -1.256,-0.132 -0.465,-0.025 -0.915,-0.044 -1.363,-0.05 -0.448,-0.008 -0.848,-0.009 -1.188,-0.009 -0.3,0 -0.52,0.07 -0.665,0.216 -0.145,0.145 -0.249,0.354 -0.283,0.628 C 43.466,7.518 42.278,14.577 41.513,22.266 39.126,14.928 36.828,8.216 34.528,0.849 34.026,-0.752 28.335,-0.712 27.848,0.848 25.547,8.215 23.293,14.766 20.906,22.101 20.14,14.414 18.908,7.517 17.954,-0.149 c -0.033,-0.274 -0.137,-0.483 -0.283,-0.628 -0.145,-0.146 -0.365,-0.215 -0.665,-0.215 -0.34,0 -0.74,0 -1.188,0.008 -0.448,0.007 -0.899,0.026 -1.363,0.05 -0.457,0.023 -0.873,0.068 -1.255,0.132 -0.966,0.159 -0.899,0.41 -0.652,1.694 1.784,9.26 2.994,18.639 4.558,27.939 0.297,1.601 1.837,1.793 3.301,1.885 2.797,0.177 3.318,-1.092 4.18,-3.473 L 31.205,7.329 z M -78.949,0.109 c 0,-0.785 0.744,-1.041 1.456,-1.039 1.416,0.008 2.434,-0.005 3.933,-0.01 1.215,-0.002 1.173,1.214 1.15,2.187 -0.077,3.472 -0.106,7.432 -0.106,10.763 l 7.73,0 c 1.598,0.362 2.55,4.428 1.05,4.465 l -8.78,0 0,9.379 6.733,0 c 1.081,-0.008 1.928,0.01 2.544,0.043 0.606,0.04 1.055,0.14 1.346,0.305 0.357,0.29 0.715,0.76 1.055,1.406 0.48,0.897 0.886,2.713 -0.839,2.713 -0.706,0.007 -1.488,0.007 -2.353,0.007 -0.873,0.01 -1.753,0.01 -2.667,0.01 -0.906,0.008 -1.771,0.008 -2.602,0.008 -0.824,0 -1.555,0 -2.178,-0.008 -0.623,0 -1.089,-0.004 -1.388,-0.017 -5.26,-0.22 -6.192,0.29 -6.101,-4.087 0.012,-0.575 0.017,-1.218 0.017,-1.917 l 0,-24.208 z"
         style="fill:#231f20;fill-opacity:1;fill-rule:nonzero;stroke:none"
         id="path20982"
         inkscape:connector-curvature="0" />
    </g>
    <g
       id="g20984"
       transform="matrix(6.123477,0,0,-6.123477,900.40502,-363.60584)">
      <path
         d="m 0,0 c 9.164,-7.396 14.531,-21.812 9.685,-46.099 l -1.94,-9.72 -2.63,9.554 c -2.988,10.86 -14.735,11.199 -26.198,11.529 -12.152,0.351 -24.028,0.693 -28.008,11.982 -3.045,8.64 1.06,16.574 8.405,21.976 5.384,3.962 12.562,6.549 19.844,6.964 C -13.476,6.605 -5.965,4.814 0,0 m 6.229,-38.079 c 2.222,17.952 -2.153,28.776 -9.19,34.456 -4.971,4.013 -11.335,5.501 -17.624,5.144 -6.373,-0.363 -12.632,-2.611 -17.307,-6.051 -5.751,-4.231 -9.024,-10.282 -6.766,-16.686 2.909,-8.253 13.187,-8.551 23.703,-8.854 10.55,-0.303 21.307,-0.615 27.184,-8.009"
         style="fill:#127ca9;fill-opacity:1;fill-rule:nonzero;stroke:none"
         id="path20986"
         inkscape:connector-curvature="0" />
    </g>
    <g
       id="g20988"
       transform="matrix(6.123477,0,0,-6.123477,1148.5901,45.86799)">
      <path
         d="M 0,0 C 0.499,1.298 0.998,2.599 1.488,3.914 1.971,5.22 2.444,6.486 2.893,7.716 3.341,8.948 3.758,10.1 4.139,11.166 4.339,10.612 4.63,9.835 5.004,8.859 5.378,7.875 5.843,6.651 6.401,5.187 6.958,3.732 7.598,1.994 8.329,0 L 0,0 z m 9.676,-4.467 c 0.781,-2.08 1.54,-3.825 2.322,-5.914 0.514,-1.38 0.849,-1.653 1.923,-1.653 l 3.842,0 c 1.3,0 1.777,0.312 1.324,1.362 -0.138,0.318 -0.286,0.654 -0.435,1.004 -0.404,0.959 -0.872,2.083 -1.388,3.375 -0.523,1.289 -1.121,2.793 -1.804,4.506 -0.356,0.869 -0.773,1.911 -1.262,3.134 C 13.707,2.572 13.184,3.888 12.61,5.318 12.044,6.742 11.462,8.19 10.873,9.66 10.283,11.132 9.717,12.548 9.161,13.913 8.603,15.277 7.884,17.269 7.419,18.375 7.119,18.972 6.721,19.27 6.222,19.27 4.969,19.27 4.13,19.301 3.31,19.264 1.728,19.193 0.959,15.814 0.258,14.137 -0.226,12.979 -0.773,11.662 -1.397,10.173 -2.028,8.693 -2.685,7.114 -3.391,5.451 -4.098,3.79 -4.805,2.102 -5.52,0.404 -6.233,-1.29 -6.933,-2.928 -7.598,-4.499 c -0.664,-1.579 -1.28,-3.019 -1.828,-4.326 -0.197,-0.464 -0.402,-0.924 -0.602,-1.386 -0.715,-1.662 0.01,-1.768 0.99,-1.823 l 2.4,0 c 1.648,0 2.058,-0.213 2.762,1.432 0.862,2.017 1.579,4.094 2.38,6.135 l 11.172,0 z"
         style="fill:#231f20;fill-opacity:1;fill-rule:nonzero;stroke:none"
         id="path20990"
         inkscape:connector-curvature="0" />
    </g>
    <g
       id="g20992"
       transform="matrix(6.123477,0,0,-6.123477,1262.5095,153.89288)">
      <path
         d="m 0,0 -0.17,0.193 c -0.084,0.048 -0.184,0.071 -0.299,0.071 -0.108,0 -0.22,-0.02 -0.336,-0.062 C -0.918,0.158 -1.02,0.092 -1.11,0 l -0.734,-1.328 0.795,0 L 0,0 z m 0.418,-5.636 c 0,-0.403 -0.036,-0.773 -0.108,-1.109 -0.072,-0.336 -0.179,-0.629 -0.322,-0.877 -0.141,-0.247 -0.317,-0.439 -0.528,-0.574 -0.21,-0.137 -0.454,-0.207 -0.733,-0.208 -0.279,10e-4 -0.523,0.071 -0.734,0.208 -0.21,0.135 -0.387,0.327 -0.528,0.574 -0.143,0.248 -0.249,0.541 -0.321,0.877 -0.073,0.336 -0.108,0.706 -0.108,1.109 0,0.401 0.035,0.772 0.108,1.108 0.072,0.336 0.178,0.628 0.321,0.876 0.141,0.246 0.318,0.441 0.528,0.578 0.211,0.135 0.455,0.202 0.734,0.205 0.279,-0.003 0.523,-0.07 0.733,-0.205 0.211,-0.137 0.387,-0.332 0.528,-0.578 0.143,-0.248 0.25,-0.54 0.322,-0.876 0.072,-0.336 0.108,-0.707 0.108,-1.108 m 1.151,0 c 0,0.425 -0.037,0.824 -0.112,1.203 -0.077,0.377 -0.188,0.725 -0.34,1.039 -0.15,0.313 -0.34,0.586 -0.566,0.816 -0.228,0.23 -0.493,0.406 -0.797,0.532 -0.305,0.125 -0.647,0.188 -1.027,0.19 -0.381,-0.002 -0.724,-0.065 -1.027,-0.19 -0.304,-0.126 -0.569,-0.302 -0.797,-0.532 -0.228,-0.23 -0.416,-0.503 -0.567,-0.816 -0.152,-0.314 -0.264,-0.662 -0.339,-1.039 -0.075,-0.379 -0.113,-0.778 -0.113,-1.203 0,-0.426 0.038,-0.826 0.113,-1.203 0.075,-0.379 0.187,-0.725 0.339,-1.04 0.151,-0.314 0.339,-0.586 0.567,-0.816 0.228,-0.23 0.493,-0.407 0.797,-0.532 0.303,-0.125 0.646,-0.189 1.027,-0.191 0.38,0.002 0.722,0.066 1.027,0.191 0.304,0.125 0.569,0.302 0.797,0.532 0.226,0.23 0.416,0.502 0.566,0.816 0.152,0.315 0.263,0.661 0.34,1.04 0.075,0.377 0.112,0.777 0.112,1.203 m -7.302,3.669 -1.151,0 0,-7.339 1.151,0 0,7.339 z m -2.728,-7.34 0,0.965 -2.741,0 0,2.31 2.496,0 0,0.942 -2.496,0 0,2.16 2.741,0 0,0.963 -3.871,0 0,-7.34 3.871,0 z m -5.356,0.274 -0.377,0.933 c -0.116,-0.083 -0.268,-0.152 -0.457,-0.208 -0.191,-0.056 -0.401,-0.084 -0.634,-0.087 -0.261,0 -0.504,0.057 -0.727,0.171 -0.222,0.115 -0.416,0.285 -0.585,0.515 -0.167,0.23 -0.298,0.516 -0.389,0.864 -0.093,0.346 -0.141,0.752 -0.143,1.218 0.002,0.468 0.05,0.875 0.143,1.22 0.091,0.346 0.222,0.634 0.389,0.864 0.169,0.23 0.363,0.4 0.585,0.514 0.223,0.115 0.466,0.169 0.727,0.169 0.233,-0.001 0.443,-0.03 0.634,-0.091 0.189,-0.057 0.341,-0.128 0.457,-0.212 l 0.377,0.923 c -0.118,0.074 -0.256,0.14 -0.422,0.199 -0.164,0.058 -0.345,0.104 -0.543,0.134 -0.198,0.035 -0.406,0.051 -0.625,0.051 -0.401,0 -0.776,-0.075 -1.126,-0.23 -0.35,-0.153 -0.658,-0.387 -0.927,-0.698 -0.269,-0.311 -0.477,-0.706 -0.628,-1.18 -0.153,-0.474 -0.23,-1.032 -0.233,-1.672 0.003,-0.641 0.08,-1.2 0.233,-1.674 0.151,-0.474 0.359,-0.868 0.628,-1.179 0.269,-0.312 0.577,-0.545 0.927,-0.699 0.35,-0.153 0.725,-0.23 1.126,-0.23 0.338,0.002 0.643,0.039 0.917,0.109 0.272,0.07 0.495,0.163 0.673,0.276 m -7.599,2.515 -2.261,0 0.906,2.736 c 0.035,0.104 0.064,0.204 0.09,0.308 0.027,0.101 0.047,0.196 0.067,0.28 l 0.041,0.205 0.017,0.079 0.019,0 0.016,-0.079 0.042,-0.205 c 0.019,-0.084 0.042,-0.179 0.067,-0.28 0.027,-0.104 0.055,-0.204 0.089,-0.308 l 0.907,-2.736 z m 2.089,-2.789 -2.547,7.34 -1.345,0 -2.547,-7.34 1.203,0 0.652,1.936 2.731,0 0.652,-1.936 1.201,0 z m -7.394,0 -0.947,7.34 -1.336,0 -1.456,-4.796 c -0.031,-0.104 -0.059,-0.21 -0.085,-0.315 -0.025,-0.105 -0.049,-0.202 -0.068,-0.291 l -0.045,-0.212 -0.016,-0.082 -0.021,0 -0.016,0.082 -0.045,0.212 c -0.018,0.089 -0.042,0.186 -0.068,0.291 -0.025,0.105 -0.055,0.211 -0.084,0.315 l -1.458,4.796 -1.334,0 -0.948,-7.34 1.07,0 0.611,5.101 c 0.014,0.108 0.024,0.221 0.034,0.329 0.01,0.11 0.019,0.213 0.026,0.305 0.007,0.092 0.013,0.165 0.017,0.222 l 0.005,0.086 0.02,0 0.019,-0.086 c 0.012,-0.057 0.028,-0.13 0.048,-0.222 0.021,-0.092 0.047,-0.195 0.076,-0.305 0.027,-0.108 0.057,-0.221 0.092,-0.329 l 1.548,-5.101 0.785,0 1.558,5.101 c 0.034,0.108 0.065,0.221 0.093,0.329 0.028,0.11 0.053,0.213 0.074,0.305 0.022,0.092 0.038,0.165 0.049,0.222 l 0.019,0.086 0.02,0 0.006,-0.086 c 0.002,-0.057 0.01,-0.13 0.016,-0.222 0.008,-0.092 0.015,-0.195 0.025,-0.305 0.011,-0.108 0.021,-0.221 0.035,-0.329 l 0.601,-5.101 1.08,0 z m -11.867,0 0,0.965 -2.74,0 0,2.31 2.496,0 0,0.942 -2.496,0 0,2.16 2.74,0 0,0.963 -3.872,0 0,-7.34 3.872,0 z m -6.63,3.671 c -10e-4,-0.494 -0.053,-0.918 -0.153,-1.275 -0.099,-0.356 -0.241,-0.648 -0.423,-0.877 -0.181,-0.227 -0.393,-0.395 -0.637,-0.504 -0.242,-0.109 -0.506,-0.165 -0.794,-0.164 -0.127,0 -0.247,0.008 -0.362,0.021 -0.114,0.01 -0.215,0.027 -0.306,0.05 -0.091,0.02 -0.162,0.046 -0.219,0.071 l 0,5.353 c 0.067,0.031 0.144,0.056 0.24,0.078 0.093,0.02 0.195,0.039 0.305,0.047 0.113,0.012 0.224,0.018 0.342,0.018 0.288,10e-4 0.552,-0.054 0.794,-0.162 0.244,-0.109 0.456,-0.278 0.637,-0.506 0.182,-0.228 0.324,-0.521 0.423,-0.877 0.1,-0.354 0.152,-0.781 0.153,-1.273 m 1.151,0 c -10e-4,0.622 -0.078,1.171 -0.229,1.642 -0.15,0.474 -0.368,0.866 -0.65,1.185 -0.283,0.315 -0.622,0.553 -1.016,0.714 -0.395,0.161 -0.837,0.239 -1.324,0.239 -0.263,0 -0.516,-0.016 -0.76,-0.051 -0.246,-0.03 -0.471,-0.076 -0.681,-0.134 -0.207,-0.059 -0.384,-0.125 -0.536,-0.199 l 0,-6.793 c 0.142,-0.071 0.314,-0.137 0.52,-0.194 0.205,-0.057 0.432,-0.105 0.679,-0.139 0.248,-0.034 0.508,-0.05 0.778,-0.052 0.487,0 0.929,0.083 1.324,0.24 0.394,0.161 0.733,0.399 1.016,0.716 0.282,0.316 0.5,0.712 0.65,1.183 0.151,0.472 0.228,1.019 0.229,1.643 m -9.411,-3.671 0,0.965 -2.74,0 0,2.31 2.495,0 0,0.942 -2.495,0 0,2.16 2.74,0 0,0.963 -3.872,0 0,-7.34 3.872,0 z m -6.63,3.671 c -0.001,-0.494 -0.053,-0.918 -0.153,-1.275 -0.1,-0.356 -0.241,-0.648 -0.423,-0.877 -0.182,-0.227 -0.393,-0.395 -0.636,-0.504 -0.244,-0.109 -0.509,-0.165 -0.795,-0.164 -0.128,0 -0.247,0.008 -0.362,0.021 -0.114,0.01 -0.215,0.027 -0.305,0.05 -0.092,0.02 -0.164,0.046 -0.22,0.071 l 0,5.353 c 0.067,0.031 0.145,0.056 0.24,0.078 0.093,0.02 0.195,0.039 0.306,0.047 0.112,0.012 0.224,0.018 0.341,0.018 0.286,10e-4 0.551,-0.054 0.795,-0.162 0.243,-0.109 0.454,-0.278 0.636,-0.506 0.182,-0.228 0.323,-0.521 0.423,-0.877 0.1,-0.354 0.152,-0.781 0.153,-1.273 m 1.151,0 c -10e-4,0.622 -0.077,1.171 -0.229,1.642 -0.151,0.474 -0.368,0.866 -0.651,1.185 -0.282,0.315 -0.621,0.553 -1.015,0.714 -0.395,0.161 -0.837,0.239 -1.324,0.239 -0.263,0 -0.516,-0.016 -0.761,-0.051 -0.244,-0.03 -0.47,-0.076 -0.679,-0.134 -0.208,-0.059 -0.385,-0.125 -0.537,-0.199 l 0,-6.793 c 0.141,-0.071 0.314,-0.137 0.52,-0.194 0.205,-0.057 0.431,-0.105 0.679,-0.139 0.248,-0.034 0.507,-0.05 0.778,-0.052 0.487,0 0.929,0.083 1.324,0.24 0.394,0.161 0.733,0.399 1.015,0.716 0.283,0.316 0.5,0.712 0.651,1.183 0.152,0.472 0.228,1.019 0.229,1.643 m -8.514,-0.882 -2.263,0 0.907,2.736 c 0.034,0.104 0.063,0.204 0.091,0.308 0.025,0.101 0.047,0.196 0.065,0.28 l 0.043,0.205 0.015,0.079 0.021,0 0.015,-0.079 0.042,-0.205 c 0.019,-0.084 0.041,-0.179 0.066,-0.28 0.027,-0.104 0.057,-0.204 0.091,-0.308 l 0.907,-2.736 z m 2.087,-2.789 -2.546,7.34 -1.346,0 -2.546,-7.34 1.202,0 0.652,1.936 2.731,0 0.652,-1.936 1.201,0 z m -8.473,3.671 c -0.002,-0.494 -0.053,-0.918 -0.152,-1.275 -0.102,-0.356 -0.242,-0.648 -0.423,-0.877 -0.182,-0.227 -0.395,-0.395 -0.637,-0.504 -0.243,-0.109 -0.508,-0.165 -0.795,-0.164 -0.127,0 -0.246,0.008 -0.362,0.021 -0.114,0.01 -0.216,0.027 -0.305,0.05 -0.093,0.02 -0.163,0.046 -0.219,0.071 l 0,5.353 c 0.065,0.031 0.144,0.056 0.239,0.078 0.093,0.02 0.195,0.039 0.306,0.047 0.111,0.012 0.223,0.018 0.341,0.018 0.287,10e-4 0.552,-0.054 0.795,-0.162 0.242,-0.109 0.455,-0.278 0.637,-0.506 0.181,-0.228 0.321,-0.521 0.423,-0.877 0.099,-0.354 0.15,-0.781 0.152,-1.273 m 1.152,0 c -0.003,0.622 -0.079,1.171 -0.23,1.642 -0.151,0.474 -0.368,0.866 -0.65,1.185 -0.283,0.315 -0.622,0.553 -1.015,0.714 -0.397,0.161 -0.838,0.239 -1.326,0.239 -0.263,0 -0.516,-0.016 -0.76,-0.051 -0.245,-0.03 -0.47,-0.076 -0.679,-0.134 -0.207,-0.059 -0.386,-0.125 -0.536,-0.199 l 0,-6.793 c 0.14,-0.071 0.314,-0.137 0.519,-0.194 0.205,-0.057 0.431,-0.105 0.679,-0.139 0.247,-0.034 0.508,-0.05 0.777,-0.052 0.488,0 0.929,0.083 1.326,0.24 0.393,0.161 0.732,0.399 1.015,0.716 0.282,0.316 0.499,0.712 0.65,1.183 0.151,0.472 0.227,1.019 0.23,1.643 m -7.038,3.669 -1.151,0 0,-7.339 1.151,0 0,7.339 z m -2.647,-7.066 -0.377,0.933 c -0.114,-0.083 -0.266,-0.152 -0.457,-0.208 -0.189,-0.056 -0.4,-0.084 -0.633,-0.087 -0.261,0 -0.504,0.057 -0.726,0.171 -0.223,0.115 -0.418,0.285 -0.587,0.515 -0.165,0.23 -0.296,0.516 -0.388,0.864 -0.094,0.346 -0.14,0.752 -0.143,1.218 0.003,0.468 0.049,0.875 0.143,1.22 0.092,0.346 0.223,0.634 0.388,0.864 0.169,0.23 0.364,0.4 0.587,0.514 0.222,0.115 0.465,0.169 0.726,0.169 0.233,-0.001 0.444,-0.03 0.633,-0.091 0.191,-0.057 0.343,-0.128 0.457,-0.212 l 0.377,0.923 c -0.116,0.074 -0.256,0.14 -0.421,0.199 -0.164,0.058 -0.344,0.104 -0.544,0.134 -0.198,0.035 -0.405,0.051 -0.624,0.051 -0.4,0 -0.776,-0.075 -1.125,-0.23 -0.35,-0.153 -0.659,-0.387 -0.928,-0.698 -0.268,-0.311 -0.476,-0.706 -0.628,-1.18 -0.153,-0.474 -0.229,-1.032 -0.233,-1.672 0.004,-0.641 0.08,-1.2 0.233,-1.674 0.152,-0.474 0.36,-0.868 0.628,-1.179 0.269,-0.312 0.578,-0.545 0.928,-0.699 0.349,-0.153 0.725,-0.23 1.125,-0.23 0.338,0.002 0.644,0.039 0.917,0.109 0.271,0.07 0.496,0.163 0.672,0.276 m -10.246,2.515 -2.262,0 0.906,2.736 c 0.034,0.104 0.064,0.204 0.091,0.308 0.025,0.101 0.048,0.196 0.065,0.28 l 0.043,0.205 0.015,0.079 0.021,0 0.015,-0.079 0.043,-0.205 c 0.018,-0.084 0.041,-0.179 0.066,-0.28 0.027,-0.104 0.056,-0.204 0.091,-0.308 l 0.906,-2.736 z m 2.088,-2.789 -2.547,7.34 -1.345,0 -2.546,-7.34 1.202,0 0.652,1.936 2.73,0 0.652,-1.936 1.202,0 z m -8.474,3.671 c -10e-4,-0.494 -0.052,-0.918 -0.152,-1.275 -0.101,-0.356 -0.241,-0.648 -0.423,-0.877 -0.182,-0.227 -0.394,-0.395 -0.637,-0.504 -0.243,-0.109 -0.508,-0.165 -0.795,-0.164 -0.127,0 -0.246,0.008 -0.362,0.021 -0.113,0.01 -0.216,0.027 -0.305,0.05 -0.092,0.02 -0.164,0.046 -0.219,0.071 l 0,5.353 c 0.065,0.031 0.144,0.056 0.24,0.078 0.092,0.02 0.195,0.039 0.305,0.047 0.112,0.012 0.223,0.018 0.341,0.018 0.287,10e-4 0.552,-0.054 0.795,-0.162 0.243,-0.109 0.455,-0.278 0.637,-0.506 0.182,-0.228 0.322,-0.521 0.423,-0.877 0.1,-0.354 0.151,-0.781 0.152,-1.273 m 1.151,0 c -0.002,0.622 -0.078,1.171 -0.228,1.642 -0.152,0.474 -0.369,0.866 -0.651,1.185 -0.283,0.315 -0.622,0.553 -1.016,0.714 -0.395,0.161 -0.837,0.239 -1.324,0.239 -0.264,0 -0.517,-0.016 -0.761,-0.051 -0.244,-0.03 -0.47,-0.076 -0.679,-0.134 -0.207,-0.059 -0.385,-0.125 -0.536,-0.199 l 0,-6.793 c 0.14,-0.071 0.314,-0.137 0.519,-0.194 0.206,-0.057 0.431,-0.105 0.679,-0.139 0.248,-0.034 0.508,-0.05 0.778,-0.052 0.487,0 0.929,0.083 1.324,0.24 0.394,0.161 0.733,0.399 1.016,0.716 0.282,0.316 0.499,0.712 0.651,1.183 0.15,0.472 0.226,1.019 0.228,1.643 m -9.411,-3.671 0,0.965 -2.741,0 0,2.31 2.497,0 0,0.942 -2.497,0 0,2.16 2.741,0 0,0.963 -3.872,0 0,-7.34 3.872,0 z m -6.63,3.671 c -0.002,-0.494 -0.052,-0.918 -0.153,-1.275 -0.1,-0.356 -0.241,-0.648 -0.422,-0.877 -0.182,-0.227 -0.395,-0.395 -0.637,-0.504 -0.243,-0.109 -0.508,-0.165 -0.795,-0.164 -0.127,0 -0.246,0.008 -0.362,0.021 -0.113,0.01 -0.216,0.027 -0.305,0.05 -0.092,0.02 -0.164,0.046 -0.22,0.071 l 0,5.353 c 0.066,0.031 0.145,0.056 0.24,0.078 0.093,0.02 0.195,0.039 0.306,0.047 0.112,0.012 0.223,0.018 0.341,0.018 0.287,10e-4 0.552,-0.054 0.795,-0.162 0.242,-0.109 0.455,-0.278 0.637,-0.506 0.181,-0.228 0.322,-0.521 0.422,-0.877 0.101,-0.354 0.151,-0.781 0.153,-1.273 m 1.152,0 c -0.003,0.622 -0.079,1.171 -0.231,1.642 -0.15,0.474 -0.368,0.866 -0.649,1.185 -0.282,0.315 -0.622,0.553 -1.015,0.714 -0.396,0.161 -0.837,0.239 -1.325,0.239 -0.264,0 -0.517,-0.016 -0.761,-0.051 -0.244,-0.03 -0.471,-0.076 -0.679,-0.134 -0.207,-0.059 -0.386,-0.125 -0.536,-0.199 l 0,-6.793 c 0.14,-0.071 0.314,-0.137 0.519,-0.194 0.206,-0.057 0.431,-0.105 0.679,-0.139 0.248,-0.034 0.508,-0.05 0.778,-0.052 0.488,0 0.929,0.083 1.325,0.24 0.393,0.161 0.733,0.399 1.015,0.716 0.281,0.316 0.499,0.712 0.649,1.183 0.152,0.472 0.228,1.019 0.231,1.643 m -8.515,-0.882 -2.262,0 0.907,2.736 c 0.034,0.104 0.062,0.204 0.089,0.308 0.027,0.101 0.047,0.196 0.067,0.28 l 0.042,0.205 0.016,0.079 0.019,0 0.016,-0.079 0.042,-0.205 c 0.02,-0.084 0.041,-0.179 0.067,-0.28 0.027,-0.104 0.056,-0.204 0.09,-0.308 l 0.907,-2.736 z m 2.088,-2.789 -2.547,7.34 -1.345,0 -2.547,-7.34 1.203,0 0.652,1.936 2.73,0 0.652,-1.936 1.202,0 z m -8.474,3.671 c -0.001,-0.494 -0.053,-0.918 -0.153,-1.275 -0.1,-0.356 -0.241,-0.648 -0.423,-0.877 -0.181,-0.227 -0.394,-0.395 -0.637,-0.504 -0.243,-0.109 -0.507,-0.165 -0.794,-0.164 -0.128,0 -0.247,0.008 -0.362,0.021 -0.114,0.01 -0.215,0.027 -0.305,0.05 -0.092,0.02 -0.163,0.046 -0.22,0.071 l 0,5.353 c 0.067,0.031 0.144,0.056 0.24,0.078 0.094,0.02 0.195,0.039 0.305,0.047 0.113,0.012 0.225,0.018 0.342,0.018 0.287,10e-4 0.551,-0.054 0.794,-0.162 0.243,-0.109 0.456,-0.278 0.637,-0.506 0.182,-0.228 0.323,-0.521 0.423,-0.877 0.1,-0.354 0.152,-0.781 0.153,-1.273 m 1.152,0 c -0.002,0.622 -0.078,1.171 -0.23,1.642 -0.15,0.474 -0.368,0.866 -0.651,1.185 -0.281,0.315 -0.62,0.553 -1.015,0.714 -0.396,0.161 -0.837,0.239 -1.324,0.239 -0.264,0 -0.516,-0.016 -0.761,-0.051 -0.245,-0.03 -0.47,-0.076 -0.679,-0.134 -0.208,-0.059 -0.385,-0.125 -0.536,-0.199 l 0,-6.793 c 0.141,-0.071 0.314,-0.137 0.519,-0.194 0.205,-0.057 0.432,-0.105 0.679,-0.139 0.248,-0.034 0.508,-0.05 0.778,-0.052 0.487,0 0.928,0.083 1.324,0.24 0.395,0.161 0.734,0.399 1.015,0.716 0.283,0.316 0.501,0.712 0.651,1.183 0.152,0.472 0.228,1.019 0.23,1.643 m -6.621,-3.671 0,0.965 -2.537,0 0,6.375 -1.151,0 0,-7.34 3.688,0 z m -5.529,2.139 0,5.201 -1.152,0 0,-5.211 c -0.002,-0.262 -0.061,-0.484 -0.176,-0.67 -0.116,-0.187 -0.272,-0.328 -0.467,-0.427 -0.197,-0.099 -0.416,-0.148 -0.661,-0.15 -0.245,0.002 -0.463,0.051 -0.658,0.15 -0.197,0.099 -0.353,0.24 -0.469,0.427 -0.116,0.186 -0.173,0.408 -0.176,0.67 l 0,5.211 -1.152,0 0,-5.201 c 0.002,-0.353 0.064,-0.671 0.188,-0.949 0.124,-0.278 0.298,-0.511 0.52,-0.703 0.222,-0.193 0.482,-0.337 0.78,-0.438 0.297,-0.099 0.619,-0.149 0.967,-0.149 0.348,0 0.671,0.05 0.969,0.149 0.296,0.101 0.556,0.245 0.778,0.438 0.222,0.192 0.396,0.425 0.52,0.703 0.124,0.278 0.187,0.596 0.189,0.949 m -6.395,-1.865 -0.378,0.933 c -0.115,-0.083 -0.267,-0.152 -0.456,-0.208 -0.191,-0.056 -0.402,-0.084 -0.635,-0.087 -0.262,0 -0.504,0.057 -0.726,0.171 -0.222,0.115 -0.418,0.285 -0.585,0.515 -0.166,0.23 -0.298,0.516 -0.39,0.864 -0.092,0.346 -0.14,0.752 -0.142,1.218 0.002,0.468 0.05,0.875 0.142,1.22 0.092,0.346 0.224,0.634 0.39,0.864 0.167,0.23 0.363,0.4 0.585,0.514 0.222,0.115 0.464,0.169 0.726,0.169 0.233,-0.001 0.444,-0.03 0.635,-0.091 0.189,-0.057 0.341,-0.128 0.456,-0.212 l 0.378,0.923 c -0.118,0.074 -0.258,0.14 -0.422,0.199 -0.165,0.058 -0.345,0.104 -0.543,0.134 -0.199,0.035 -0.406,0.051 -0.625,0.051 -0.401,0 -0.776,-0.075 -1.126,-0.23 -0.35,-0.153 -0.66,-0.387 -0.927,-0.698 -0.269,-0.311 -0.477,-0.706 -0.629,-1.18 -0.152,-0.474 -0.229,-1.032 -0.232,-1.672 0.003,-0.641 0.08,-1.2 0.232,-1.674 0.152,-0.474 0.36,-0.868 0.629,-1.179 0.267,-0.312 0.577,-0.545 0.927,-0.699 0.35,-0.153 0.725,-0.23 1.126,-0.23 0.338,0.002 0.643,0.039 0.916,0.109 0.272,0.07 0.497,0.163 0.674,0.276 m -7.599,2.515 -2.262,0 0.908,2.736 c 0.033,0.104 0.062,0.204 0.089,0.308 0.026,0.101 0.048,0.196 0.067,0.28 l 0.041,0.205 0.017,0.079 0.019,0 0.017,-0.079 0.041,-0.205 c 0.019,-0.084 0.041,-0.179 0.066,-0.28 0.028,-0.104 0.056,-0.204 0.09,-0.308 l 0.907,-2.736 z m 2.089,-2.789 -2.547,7.34 -1.345,0 -2.547,-7.34 1.203,0 0.651,1.936 2.73,0 0.652,-1.936 1.203,0 z m -6.864,6.377 0,0.963 -3.81,0 0,-7.34 1.13,0 0,3.275 2.445,0 0,0.942 -2.445,0 0,2.16 2.68,0 z"
         style="fill:#231f20;fill-opacity:1;fill-rule:nonzero;stroke:none"
         id="path20994"
         inkscape:connector-curvature="0" />
    </g>
  </g>
</svg>
